<?xml version="1.0" encoding="utf-8"?>
<!-- Generator: Adobe Illustrator 22.1.0, SVG Export Plug-In . SVG Version: 6.00 Build 0)  -->
<svg version="1.1" id="Camada_1" xmlns="http://www.w3.org/2000/svg" xmlns:xlink="http://www.w3.org/1999/xlink" x="0px" y="0px"
	 viewBox="0 0 416 176.9" style="enable-background:new 0 0 416 176.9;" xml:space="preserve">
<style type="text/css">
	.st0{fill:#341947;}
</style>
<g>
	<g>
		<path class="st0" d="M95.9,49.5c-3-14.3-12.8-21.1-27.3-21.1c-19,0-32.7,14.5-32.7,41.5s13.7,41.5,32.7,41.5
			c15.5,0,25.2-8.9,30.3-23.2H77.5V72.4h39.1v51.3h-11.9l-2-16.4h-0.3C95.2,121.2,82.2,127,64.8,127c-23.1,0-49.5-19.3-49.5-54.3
			c0-37.7,20.8-60,55.5-60c23.8,0,41.5,12.4,44.8,36.8C115.6,49.5,95.9,49.5,95.9,49.5z"/>
		<path class="st0" d="M179.3,123.7c-1.7-3.5-2.6-7.5-2.3-11.5h-0.3c-4.5,8.9-12.7,14.5-22.9,14.5c-15.2,0-24.6-9.1-24.6-23.2
			c0-34.7,47.5-13,47.5-31.1c0-6.6-6-8.8-13.7-8.8c-5.7,0-12.7,2.4-12.7,9.1h-16.9c0-16.6,14.9-22,29.4-22
			c21.1,0,31.7,9.4,31.7,31.4v28.1c0,7.8,0.9,10.9,3.9,13.6h-19.1V123.7z M176.8,84.2h-0.3c-6,11.8-28.2,3.9-28.2,19
			c0,8.1,5,10.6,12.2,10.6C178.4,113.8,176.8,96.4,176.8,84.2z"/>
		<path class="st0" d="M231.4,16v107.7h-17.8V16H231.4z"/>
		<path class="st0" d="M247.8,88.7c0.2-23.7,11.3-38,36.2-38c22.5,0,36.2,14.8,36.2,38c0,22.9-13.7,38-36.2,38
			C259.2,126.7,248,112.1,247.8,88.7z M301.3,88.7c0-17.2-7.1-25.3-17.4-25c-10-0.3-17,7.8-17,25c0,16.9,7.1,25,17,25
			C294.2,113.8,301.3,105.6,301.3,88.7z"/>
		<path class="st0" d="M380.6,123.7c-1.7-3.5-2.6-7.5-2.3-11.5H378c-4.5,8.9-12.7,14.5-22.9,14.5c-15.2,0-24.6-9.1-24.6-23.2
			c0-34.7,47.5-13,47.5-31.1c0-6.6-6-8.8-13.7-8.8c-5.7,0-12.7,2.4-12.7,9.1h-16.9c0-16.6,14.9-22,29.4-22
			c21.1,0,31.7,9.4,31.7,31.4v28.1c0,7.8,0.9,10.9,3.9,13.6h-19.1V123.7z M378,84.2h-0.3c-6,11.8-28.2,3.9-28.2,19
			c0,8.1,5,10.6,12.2,10.6C379.7,113.8,378,96.4,378,84.2z M366.1,42.7h-12.4L367.3,21h20.4L366.1,42.7z"/>
	</g>
</g>
<rect x="15.7" y="152.4" class="st0" width="35.5" height="2.8"/>
<rect x="364.7" y="152.4" class="st0" width="35.5" height="2.8"/>
<g>
	<path class="st0" d="M57.9,140.3h7.8c4.4,0,7.5,2.4,7.5,6.7c0,4.3-3.1,6.7-7.5,6.7h-5.5v8.4h-2.4V140.3z M60.3,151.5H66
		c2.8,0,4.9-1.3,4.9-4.6s-2.1-4.6-4.9-4.6h-5.7V151.5z"/>
	<path class="st0" d="M76.2,148h2.2v3h0.1c1.3-2.5,3.4-3.6,6.2-3.6v1.8c-4.2,0-6.3,2-6.3,5.8v7h-2.2V148z"/>
	<path class="st0" d="M85.3,155c0-5,3.3-7.6,7.3-7.6c3.9,0,7.3,2.6,7.3,7.6c0,5-3.3,7.6-7.3,7.6C88.6,162.5,85.3,160,85.3,155z
		 M97.6,155c0-3.6-1.9-5.9-5.1-5.9c-3.1,0-5.1,2.3-5.1,5.9s1.9,5.9,5.1,5.9C95.7,160.9,97.6,158.6,97.6,155z"/>
	<path class="st0" d="M112.6,152.4c-0.1-2.2-1.6-3.4-3.8-3.4c-3.2,0-4.5,2.7-4.5,5.9s1.3,5.9,4.5,5.9c2.5,0,3.5-1.5,4-3.5h2.1
		c-0.7,3.6-2.5,5.2-6.1,5.2c-4.6,0-6.7-3.5-6.7-7.6c0-4,2.1-7.6,6.7-7.6c3.1,0,5.7,1.7,6,5H112.6z"/>
	<path class="st0" d="M119.7,155.3c0.1,3.3,1.7,5.6,4.9,5.6c2.3,0,3.7-0.8,4.5-2.6h2.2c-0.8,3.1-3.5,4.3-6.6,4.3
		c-4.3,0-7.2-2.3-7.2-7.6c0-4.2,2.1-7.5,7.2-7.5c5,0,6.6,3.5,6.7,7.9H119.7z M129,153.7c-0.3-3.1-1.5-4.7-4.4-4.7
		c-3,0-4.8,2.2-5,4.7H129z"/>
	<path class="st0" d="M135.9,155.3c0.1,3.3,1.7,5.6,4.9,5.6c2.3,0,3.7-0.8,4.5-2.6h2.2c-0.8,3.1-3.5,4.3-6.6,4.3
		c-4.3,0-7.2-2.3-7.2-7.6c0-4.2,2.1-7.5,7.2-7.5c5,0,6.6,3.5,6.7,7.9H135.9z M145.3,153.7c-0.3-3.1-1.5-4.7-4.4-4.7
		c-3,0-4.8,2.2-5,4.7H145.3z"/>
	<path class="st0" d="M163.2,162H161v-2.1H161c-1.2,1.7-2.9,2.6-5,2.6c-4,0-6.1-3.5-6.1-7.6c0-4,2.1-7.6,6.1-7.6
		c2.3,0,3.8,0.9,5,2.6h0.1v-9.7h2.2V162z M156.6,160.9c3.2,0,4.5-2.7,4.5-5.9s-1.3-5.9-4.5-5.9s-4.5,2.7-4.5,5.9
		S153.4,160.9,156.6,160.9z"/>
	<path class="st0" d="M166.9,142.7h2.4v2.4h-2.4V142.7z M167,148h2.2v14H167V148z"/>
	<path class="st0" d="M182.7,162v-9.7c0-1.7-0.9-3.2-2.9-3.2c-2.3,0-4.4,1.8-4.4,5.4v7.5h-2.2v-14h2.2v2.4h0.1
		c1-1.9,2.5-2.9,4.8-2.9c2.8,0,4.7,2.1,4.7,5.1v9.5H182.7z"/>
	<path class="st0" d="M201.4,148v13.4c0,4-1.5,7.2-7,7.2c-3.6,0-5.6-2.3-5.6-4.3v-0.1h2.1c0.3,2.1,1.9,2.7,3.7,2.7
		c2.6,0,4.6-1.8,4.6-5v-1.8h-0.1c-1.2,1.6-2.9,2.5-5,2.5c-4,0-6.1-3.5-6.1-7.6c0-4,2.1-7.6,6.1-7.6c2.3,0,3.8,0.9,5,2.6h0.1v-2
		H201.4z M194.8,160.9c3.2,0,4.5-2.7,4.5-5.9s-1.3-5.9-4.5-5.9s-4.5,2.7-4.5,5.9S191.6,160.9,194.8,160.9z"/>
	<path class="st0" d="M206.9,157.5c0.3,2.3,1.7,3.4,4.1,3.4c1.9,0,4-1,4-2.6c0-4.2-9.8-0.9-9.8-6.8c0-3.1,3.1-4.1,5.7-4.1
		c3.5,0,5.8,1.6,5.9,4.7h-1.9c0-1.9-1.6-3-4-3c-2.4,0-3.6,1-3.6,2.3c0,4.1,9.5,0.6,9.5,6.7c0,3.5-3.3,4.4-6.2,4.4
		c-3.3,0-5.6-1.5-5.9-5H206.9z"/>
	<path class="st0" d="M229,140.3h2.4V162H229V140.3z"/>
	<path class="st0" d="M245,162v-9.7c0-1.7-0.9-3.2-2.9-3.2c-2.3,0-4.4,1.8-4.4,5.4v7.5h-2.2v-14h2.2v2.4h0.1c1-1.9,2.5-2.9,4.8-2.9
		c2.8,0,4.7,2.1,4.7,5.1v9.5H245z"/>
	<path class="st0" d="M263.8,162h-2.2v-2.1h-0.1c-1.2,1.7-2.9,2.6-5,2.6c-4,0-6.1-3.5-6.1-7.6c0-4,2.1-7.6,6.1-7.6
		c2.3,0,3.8,0.9,5,2.6h0.1v-9.7h2.2V162z M257.1,160.9c3.2,0,4.5-2.7,4.5-5.9s-1.3-5.9-4.5-5.9s-4.5,2.7-4.5,5.9
		S254,160.9,257.1,160.9z"/>
	<path class="st0" d="M269.1,155.3c0.1,3.3,1.7,5.6,4.9,5.6c2.3,0,3.7-0.8,4.5-2.6h2.2c-0.8,3.1-3.5,4.3-6.6,4.3
		c-4.3,0-7.2-2.3-7.2-7.6c0-4.2,2.1-7.5,7.2-7.5c5,0,6.6,3.5,6.7,7.9H269.1z M278.5,153.7c-0.3-3.1-1.5-4.7-4.4-4.7
		c-3,0-4.8,2.2-5,4.7H278.5z"/>
	<path class="st0" d="M289,152.7l3.8-4.7h2.8l-5.3,6.4l5.8,7.6h-2.7l-4.3-6l-4.7,6h-2.6l6-7.6l-5.1-6.4h2.7L289,152.7z"/>
	<path class="st0" d="M297.6,151.8c0.7-3.6,3-4.4,6.4-4.4c4,0,5.4,1.7,5.4,5.5v6.3c0,1,0.2,2,0.6,2.8h-2.3c-0.2-0.6-0.4-1.4-0.5-2.1
		c-1.4,1.7-2.9,2.6-5.2,2.6c-2.6,0-5-1.4-5-4.1c0-7.4,10.2-3,10.2-7.1c0-1.6-2.1-2.3-3.6-2.3c-1.9,0-3.6,0.7-3.8,2.8H297.6z
		 M307.2,153.7c-1.4,0.9-3.3,1.3-5.4,1.6c-1.4,0.2-2.6,1.2-2.6,2.7c0,1.9,1.5,2.9,3.3,2.9c2.5,0,4.7-2,4.7-4.3V153.7z"/>
	<path class="st0" d="M325.6,162h-2.2v-2.1h-0.1c-1.2,1.7-2.9,2.6-5,2.6c-4,0-6.1-3.5-6.1-7.6c0-4,2.1-7.6,6.1-7.6
		c2.3,0,3.8,0.9,5,2.6h0.1v-9.7h2.2V162z M318.9,160.9c3.2,0,4.5-2.7,4.5-5.9s-1.3-5.9-4.5-5.9s-4.5,2.7-4.5,5.9
		S315.8,160.9,318.9,160.9z"/>
	<path class="st0" d="M328.6,155c0-5,3.3-7.6,7.3-7.6s7.3,2.6,7.3,7.6c0,5-3.3,7.6-7.3,7.6S328.6,160,328.6,155z M340.9,155
		c0-3.6-1.9-5.9-5.1-5.9s-5.1,2.3-5.1,5.9s1.9,5.9,5.1,5.9S340.9,158.6,340.9,155z"/>
	<path class="st0" d="M347.9,157.5c0.3,2.3,1.7,3.4,4.1,3.4c1.9,0,4-1,4-2.6c0-4.2-9.8-0.9-9.8-6.8c0-3.1,3.1-4.1,5.7-4.1
		c3.5,0,5.8,1.6,5.9,4.7h-1.9c0-1.9-1.6-3-4-3c-2.4,0-3.6,1-3.6,2.3c0,4.1,9.5,0.6,9.5,6.7c0,3.5-3.3,4.4-6.2,4.4
		c-3.3,0-5.6-1.5-5.9-5H347.9z"/>
</g>
</svg>
